# xmcd
#
# Track frame offsets: 
#        151
#        21644
#        46272
#        70812
#        103327
#        127576
#        144200
#        162417
#        198524
#
# Disc length: 3097 seconds
#
# Revision: 0
# Processed by: cddbd v1.5PL3 Copyright (c) Steve Scherf et al.
# Submitted via: ExactAudioCopy v0.95a5
#
DISCID=7b0c1709
DTITLE=Adam Schlenker Band - Easy Access
DYEAR=1999
DGENRE=Blues
TTITLE0=My Way Home
TTITLE1=If You Go
TTITLE2=Looking Down
TTITLE3=Broken Pieces
TTITLE4=Angel
TTITLE5=Easy Access
TTITLE6=Change Is
TTITLE7=Everybody's Talking
TTITLE8=Coffin
EXTD=
EXTT0=
EXTT1=
EXTT2=
EXTT3=
EXTT4=
EXTT5=
EXTT6=
EXTT7=
EXTT8=
PLAYORDER=
